<svg xmlns="http://www.w3.org/2000/svg" width="25" height="25" viewBox="0 0 25 25"><defs><style>.a{fill:#9fbcba;opacity:0.5;}</style></defs><path class="a" d="M25,3.428V6.309a.975.975,0,1,1-1.949,0V3.881L15.943,11a2.883,2.883,0,0,1-4.135,0L10.662,9.853a1.024,1.024,0,0,0-.681-.322,1.019,1.019,0,0,0-.707.332l-.008.009L7.173,11.978A.976.976,0,1,1,5.791,10.6L7.88,8.5a2.958,2.958,0,0,1,2.1-.92H10a2.966,2.966,0,0,1,2.043.894L13.186,9.62a.993.993,0,0,0,.671.3h.016a.991.991,0,0,0,.692-.3l7.157-7.169H19.153a.977.977,0,0,1,0-1.953h2.924A2.93,2.93,0,0,1,25,3.428ZM2.214,14.32l-1.938,2a.976.976,0,1,0,1.4,1.36l1.938-2a.976.976,0,1,0-1.4-1.36Zm4.512.631h0a.976.976,0,0,0-.975.977v8.594a.976.976,0,0,0,.975.977h0a.976.976,0,0,0,.975-.977V15.928A.976.976,0,0,0,6.726,14.951Zm3.8-2.148a.976.976,0,0,0-.975.977V24.521a.975.975,0,1,0,1.949,0V13.779A.976.976,0,0,0,10.527,12.8ZM2.879,19.346a.976.976,0,0,0-.978.977v4.2a.976.976,0,0,0,.975.977h0a.976.976,0,0,0,.975-.977v-4.2A.976.976,0,0,0,2.879,19.346Zm15.3-7.178a.976.976,0,0,0-.971.977V24.521a.976.976,0,0,0,.975.977h0a.976.976,0,0,0,.975-.977V13.144A.976.976,0,0,0,18.174,12.168Zm3.853-3.32a.976.976,0,0,0-.975.977v14.7a.976.976,0,0,0,.975.977h0A.976.976,0,0,0,23,24.521V9.824A.976.976,0,0,0,22.028,8.848Zm-7.7,5.176a.976.976,0,0,0-.975.977v9.521a.976.976,0,0,0,.975.977h0a.976.976,0,0,0,.975-.977V15A.976.976,0,0,0,14.328,14.023Z" transform="translate(-0.001 -0.498)"/></svg>