<svg xmlns="http://www.w3.org/2000/svg" xmlns:xlink="http://www.w3.org/1999/xlink" width="24.982" height="17.193" viewBox="0 0 24.982 17.193"><defs><style>.a{fill:url(#a);}</style><linearGradient id="a" y1="0.403" x2="1" y2="0.397" gradientUnits="objectBoundingBox"><stop offset="0" stop-color="#00f2fe"/><stop offset="0.021" stop-color="#03effe"/><stop offset="0.293" stop-color="#24d2fe"/><stop offset="0.554" stop-color="#3cbdfe"/><stop offset="0.796" stop-color="#4ab0fe"/><stop offset="1" stop-color="#4facfe"/></linearGradient></defs><g transform="translate(0.019 0.982)"><g transform="translate(-0.017 -0.962)"><path class="a" d="M24.914,14.909a4.639,4.639,0,0,0-2.354-2.746,2.144,2.144,0,0,0,.294-.49A2.623,2.623,0,0,0,21.579,8.24a2.717,2.717,0,0,0-1.962-.1,2.32,2.32,0,0,0-1.275,1.08c-.1-.1-.2-.1-.294-.2a2.54,2.54,0,0,0-.2-3.335,2.68,2.68,0,0,0-1.86-.785h0a2.3,2.3,0,0,0-1.766.785,2.665,2.665,0,0,0-.2,3.433.1.1,0,0,0-.1.1A9.229,9.229,0,0,0,11.77,8.043a4.266,4.266,0,0,0,.589-.687A4.576,4.576,0,0,0,11.378.882,5.611,5.611,0,0,0,7.847,0,4.755,4.755,0,0,0,4.806,1.863,4.551,4.551,0,0,0,5.4,8.042a9.061,9.061,0,0,0-4.12,3.335,1.043,1.043,0,0,0,.2,1.177,1.107,1.107,0,0,0,.785.1c.2,0,.392-.2.589-.392A7.031,7.031,0,0,1,8.337,9.22h.294A6.906,6.906,0,0,1,15.2,14.712a.59.59,0,0,1-.1.392c-.1.1-.2.2-.294.2H2.158c-.1,0-.2-.1-.294-.2s-.1-.2-.1-.392a.955.955,0,0,0-.687-1.079A.9.9,0,0,0,0,14.32v.49a1.952,1.952,0,0,0,.687,1.57,2.315,2.315,0,0,0,1.569.687H14.909a2.1,2.1,0,0,0,1.667-.785,2.458,2.458,0,0,0,.49-1.864A8.271,8.271,0,0,0,15.1,10.495a2.943,2.943,0,0,1,2.943.589,2.518,2.518,0,0,0,.49,1.177,2.144,2.144,0,0,0-.49.294.539.539,0,0,0-.294.49,1.244,1.244,0,0,0,.1.589.772.772,0,0,0,1.079.2,2.568,2.568,0,0,1,1.667-.49h0A3.252,3.252,0,0,1,23.54,15.5a.1.1,0,0,1-.1.1h-5.1a.785.785,0,1,0,0,1.569h5.1a.884.884,0,0,0,.49-.1,1.85,1.85,0,0,0,.984-2.16ZM15.988,6.571a1.08,1.08,0,1,1,0,2.158h0a1.079,1.079,0,1,1,0-2.158Zm4.512,5.1h0a1.089,1.089,0,0,1-1.079-1.079h0a1.11,1.11,0,1,1,1.079,1.08ZM5.689,4.61A2.826,2.826,0,0,1,8.435,1.765a2.934,2.934,0,0,1,3.041,2.746,3.079,3.079,0,0,1-.687,2.06,2.918,2.918,0,0,1-1.962.981H8.533A2.929,2.929,0,0,1,5.689,4.61Z"/></g></g></svg>