<svg xmlns="http://www.w3.org/2000/svg" width="25" height="20" viewBox="0 0 25 20"><defs><style>.a{fill:#9fbcba;opacity:0.5;}</style></defs><path class="a" d="M21.247,56.276a.972.972,0,0,0-1.241-.117c-1.461,1-8.791,6.043-9.578,6.835a2.965,2.965,0,0,0,0,4.17,2.92,2.92,0,0,0,4.143,0c.788-.793,5.8-8.169,6.792-9.639A.988.988,0,0,0,21.247,56.276Zm-8.057,9.5a.973.973,0,0,1-1.381,0,.988.988,0,0,1,0-1.39c.306-.3,2.387-1.8,4.947-3.589C14.977,63.372,13.493,65.466,13.191,65.774ZM25,65.079a12.587,12.587,0,0,1-2.118,6.984.972.972,0,0,1-1.232.341L19.6,71.421a.986.986,0,0,1-.462-1.31.974.974,0,0,1,1.3-.465l1.259.6a10.64,10.64,0,0,0,.42-9.533.985.985,0,0,1,.488-1.3.974.974,0,0,1,1.292.491A12.551,12.551,0,0,1,25,65.079ZM5.809,70.1a.986.986,0,0,1-.45,1.314l-2,.983a.972.972,0,0,1-1.24-.337A12.61,12.61,0,0,1,3.661,56.183a12.45,12.45,0,0,1,13.977-2.576.985.985,0,0,1,.488,1.3.974.974,0,0,1-1.292.491,10.374,10.374,0,0,0-3.358-.89v1.479a.977.977,0,1,1-1.953,0V54.51A10.553,10.553,0,0,0,3.5,59.547l1.364.658a.984.984,0,0,1-.423,1.869.968.968,0,0,1-.422-.1L2.64,61.311A10.625,10.625,0,0,0,3.3,70.242L4.5,69.65A.974.974,0,0,1,5.809,70.1Z" transform="translate(0 -52.499)"/></svg>