<svg xmlns="http://www.w3.org/2000/svg" xmlns:xlink="http://www.w3.org/1999/xlink" width="25" height="25" viewBox="0 0 25 25"><defs><style>.a{fill:url(#a);}</style><linearGradient id="a" y1="0.504" x2="1" y2="0.504" gradientUnits="objectBoundingBox"><stop offset="0" stop-color="#00f2fe"/><stop offset="0.021" stop-color="#03effe"/><stop offset="0.293" stop-color="#24d2fe"/><stop offset="0.554" stop-color="#3cbdfe"/><stop offset="0.796" stop-color="#4ab0fe"/><stop offset="1" stop-color="#4facfe"/></linearGradient></defs><path class="a" d="M20.8,16.6a4.192,4.192,0,0,0-3.231,1.52L14.3,16.5a.977.977,0,1,0-.87,1.749L16.7,19.873A4.2,4.2,0,1,0,20.8,16.6Zm0,6.445a2.246,2.246,0,0,1-2.072-3.113.987.987,0,0,0,.118-.24A2.246,2.246,0,1,1,20.8,23.047ZM9.867,14.272l-1.581-.8a4.216,4.216,0,0,0,0-1.921l9.289-4.658a4.179,4.179,0,1,0-.871-1.748L7.414,9.8a4.2,4.2,0,1,0-.01,5.409l1.577.8a.977.977,0,1,0,.886-1.741ZM20.8,1.953A2.246,2.246,0,1,1,18.555,4.2,2.249,2.249,0,0,1,20.8,1.953ZM4.2,14.746A2.246,2.246,0,1,1,6.445,12.5,2.249,2.249,0,0,1,4.2,14.746Z"/></svg>