<svg xmlns="http://www.w3.org/2000/svg" xmlns:xlink="http://www.w3.org/1999/xlink" width="20" height="20" viewBox="0 0 20 20"><defs><style>.a{fill:url(#a);}</style><linearGradient id="a" y1="0.504" x2="1" y2="0.504" gradientUnits="objectBoundingBox"><stop offset="0" stop-color="#00f2fe"/><stop offset="0.021" stop-color="#03effe"/><stop offset="0.293" stop-color="#24d2fe"/><stop offset="0.554" stop-color="#3cbdfe"/><stop offset="0.796" stop-color="#4ab0fe"/><stop offset="1" stop-color="#4facfe"/></linearGradient></defs><path class="a" d="M3.923-13.211A8.3,8.3,0,0,1,12.211-21.5,8.3,8.3,0,0,1,20.5-13.211a8.291,8.291,0,0,1-1.085,4.1,1.22,1.22,0,0,1-1.665.455,1.22,1.22,0,0,1-.455-1.665,5.847,5.847,0,0,0,.764-2.892,5.855,5.855,0,0,0-5.848-5.848,5.855,5.855,0,0,0-5.848,5.848,5.855,5.855,0,0,0,5.848,5.848,5.849,5.849,0,0,0,2.862-.747,1.22,1.22,0,0,1,1.662.465,1.22,1.22,0,0,1-.465,1.662,8.293,8.293,0,0,1-4.058,1.06A8.247,8.247,0,0,1,7.3-6.54L2.58-1.854a1.218,1.218,0,0,1-.86.354,1.218,1.218,0,0,1-.866-.36A1.22,1.22,0,0,1,.86-3.586L5.567-8.261A8.247,8.247,0,0,1,3.923-13.211Z" transform="translate(-0.5 21.5)"/></svg>