<svg xmlns="http://www.w3.org/2000/svg" width="25" height="28" viewBox="0 0 25 28"><defs><style>.a{fill:#9fbcba;opacity:0.5;}</style></defs><path class="a" d="M46.1,7.611c-.408-.911-1.447-2.033-4.078-2.2a1.094,1.094,0,0,0-.134,2.183c1.215.078,2.044.418,2.275.933a1.583,1.583,0,0,1,.192.729c-.027.688-.635,1.785-1.811,3.266a28.247,28.247,0,0,0-5.685-4.061,33.349,33.349,0,0,0-5.969-2.488q.124-.342.259-.665c.819-1.953,1.87-3.119,2.811-3.119.779,0,1.464.782,1.9,1.437a1.049,1.049,0,0,0,1.482.286,1.112,1.112,0,0,0,.279-1.52C36.3.415,34.9,0,33.956,0c-1.874,0-3.568,1.577-4.769,4.442q-.207.493-.389,1.023a13.591,13.591,0,0,0-3.677-.084l-.021,0a4.031,4.031,0,0,0-3.166,1.995,3.462,3.462,0,0,0-.4,1.576,5.7,5.7,0,0,0,.7,2.594,1.053,1.053,0,0,0,1.437.469,1.108,1.108,0,0,0,.457-1.474,3.607,3.607,0,0,1-.459-1.562,1.234,1.234,0,0,1,.143-.57,2.192,2.192,0,0,1,1.609-.867,11.767,11.767,0,0,1,2.773.042A28.961,28.961,0,0,0,27.506,14a30.187,30.187,0,0,0,.736,6.274q-.331.048-.651.079c-2,.193-3.479-.168-3.869-.942a1.25,1.25,0,0,1-.106-.553,2.721,2.721,0,0,1,.182-.968,1.1,1.1,0,0,0-.616-1.412,1.058,1.058,0,0,0-1.376.632,4.943,4.943,0,0,0-.322,1.766,3.408,3.408,0,0,0,.344,1.538c.716,1.423,2.38,2.178,4.744,2.178q.582,0,1.22-.061.485-.047.991-.128a12.762,12.762,0,0,0,1.605,3.342C31.679,27.608,33.041,28,33.956,28c.944,0,2.345-.415,3.661-2.391a1.112,1.112,0,0,0-.279-1.52,1.049,1.049,0,0,0-1.482.286c-.437.656-1.121,1.437-1.9,1.437-.751,0-1.413-.731-1.837-1.344l-.02-.028a10.22,10.22,0,0,1-1.217-2.5,28.955,28.955,0,0,0,5.882-2.367,29.07,29.07,0,0,0,5.61-3.833,1.081,1.081,0,0,0,.128-.136,6.02,6.02,0,0,1,1.688,3.408,1.328,1.328,0,0,1-.09.57,2.205,2.205,0,0,1-1.624.869,1.091,1.091,0,0,0-.885,1.253,1.075,1.075,0,0,0,1.051.921,1.05,1.05,0,0,0,.169-.014,4.031,4.031,0,0,0,3.166-1.995,3.418,3.418,0,0,0,.343-1.576,7.991,7.991,0,0,0-2.28-4.954c1.651-2.043,2.391-3.5,2.439-4.751A3.7,3.7,0,0,0,46.1,7.611Zm-14.9.761-.058.03q-.535.284-1.057.586.088-.47.192-.922C30.567,8.161,30.875,8.263,31.2,8.372Zm-1.028,10.66q.439.26.889.509l.1.053q-.415.13-.822.24Q30.248,19.446,30.168,19.033Zm5.618-1.4c-.625.331-1.252.636-1.876.913-.616-.286-1.236-.6-1.844-.934-.8-.441-1.58-.918-2.316-1.417-.069-.711-.11-1.447-.11-2.2s.029-1.508.085-2.239c.761-.5,1.565-.976,2.393-1.415.607-.322,1.225-.622,1.84-.9.621.277,1.256.587,1.89.936.786.433,1.546.9,2.267,1.386.059.711.107,1.462.107,2.228s-.05,1.542-.11,2.264C37.37,16.747,36.591,17.208,35.785,17.635Zm4.557-3c.006-.209.01-.42.01-.633,0-.181,0-.36-.007-.538q.349.3.674.6c-.013.01-.026.02-.039.031C40.774,14.273,40.561,14.454,40.342,14.633ZM38.273,5.3A1.094,1.094,0,1,1,37.207,6.4,1.08,1.08,0,0,1,38.273,5.3ZM23.828,14.383a1.066,1.066,0,1,1,1.066,1.094A1.08,1.08,0,0,1,23.828,14.383Zm15.724,7.109A1.066,1.066,0,1,1,38.486,20.4,1.08,1.08,0,0,1,39.552,21.492Z" transform="translate(-21.483)"/></svg>