<svg xmlns="http://www.w3.org/2000/svg" width="30" height="30" viewBox="0 0 30 30"><defs><style>.a{fill:#5c7775;}</style></defs><g transform="translate(0 0)"><path class="a" d="M-4708-2298a14.9,14.9,0,0,1-10.606-4.394A14.9,14.9,0,0,1-4723-2313a14.9,14.9,0,0,1,4.394-10.607A14.9,14.9,0,0,1-4708-2328a14.9,14.9,0,0,1,10.606,4.394A14.9,14.9,0,0,1-4693-2313a14.9,14.9,0,0,1-4.394,10.607A14.9,14.9,0,0,1-4708-2298Zm-5.1-20.172a2.279,2.279,0,0,0-2.275,2.277v6.1a2.279,2.279,0,0,0,2.275,2.277h10.675a2.279,2.279,0,0,0,2.276-2.277v-6.1a2.279,2.279,0,0,0-2.275-2.277Zm3.815,7.9V-2316l4.348,2.867-4.346,2.866Z" transform="translate(4723 2328)"/></g></svg>